<?xml version="1.0" encoding="UTF-8"?>
<svg id="Layer_2" xmlns="http://www.w3.org/2000/svg" version="1.1" xmlns:xlink="http://www.w3.org/1999/xlink" viewBox="0 0 241.6 241.5">
  <!-- Generator: Adobe Illustrator 30.2.1, SVG Export Plug-In . SVG Version: 2.1.1 Build 1)  -->
  <defs>
    <style>
      .st0 {
        fill: #de0800;
      }

      .st1 {
        fill: #de0000;
      }

      .st2 {
        fill: #ef7300;
      }

      .st3 {
        fill: #ad2100;
      }

      .st4 {
        display: none;
      }

      .st5 {
        fill: #ce0800;
      }

      .st6 {
        fill: #f7ad10;
      }

      .st7 {
        fill: #f7a508;
      }

      .st8 {
        fill: #f7a500;
      }

      .st9 {
        fill: #ef8400;
      }
    </style>
  </defs>
  <rect class="st7" y="0" width="241.6" height="241.5" rx="25" ry="25"/>
  <path d="M210.1,176.4v6.9c-.6,7.4-2,14.5-4.3,21.8-2.4,6.7-5.6,13-9.8,19-4.8,6-9.8,11.2-17.1,13.8-2.3.5-4.2.8-6.3.9-.7,0-1.4-.1-2.1-.2-6.1-1.7-8.7-4.1-12.2-8.9-.6-1.1-1.2-2.3-1.8-3.4-1.3-3.2-2.1-5.9-2.8-8.9-1.6-8.9-1.1-16.8.2-25.5.1-.1.6-2.9.8-3,2.1-9.2,5.6-17.4,10.6-25.2,3.8-5.6,7.8-9.9,13.5-13.6,4.7-2.2,8.5-3.9,13.9-2.9,5.4,1.6,8.3,3.9,11.6,8.8.6,1.2,1.3,2.4,1.9,3.6,1.5,3.5,2.4,7.4,3.2,11.5.2,1.8.4,3.6.6,5.4h.1Z"/>
  <path d="M75.8,203.3c0-1.1-.8-1.3-1.4-1.4-.6.6,0,2,1.2,1.6,0,.4-.2.4.3,1,.7.4,4.1,2.4,4.7,3.3.2.2.4.3.7.5-4.2.6-7.4,3-10.8,4.9-.9,1.4-1.7,1.1-2.9.8-2.7-1.5-5.1-2.9-7.2-4.5-2.2-2.2-3.8-3.8-4.8-4.8-3-3.7-5.4-7.6-7.7-11.3-1.5-3.1-3-6.3-4.4-9.4-2.2-6.4-4.3-12.7-5.4-18.9-.2-2.3-.2-4.4-.3-6.3-.5-.4,0-7,.3-7.2,1.2-7.1,2.7-14.5,6.5-20.5.8-.4,1.8-.7,2.7-1.2,2.9.4,5.1-.6,7.7-2.2.9-.8,1.8-1.9,2.9-2.4,1.5-1.6,3.5-3.5,4.6-5.4.6-.2,2.8-4.9,3.2-5.6.4-.5.7-.9.8-1.3.6.3,1,2.4,1.3,3.3.5,1.1,1.1,2.3,1.6,3.4h.3c.3-.4.7-.8,1-1.2.8,1.4.2,4.9-.3,6.8-.6,1.3-1.1,2.6-1.7,3.9-2.4,3.1-2.4,3.4-2.8,3.6-2.1,3.1-4.7,6.1-6.8,9.4-.4,1.3-1.4,2.8-2.1,4-.3.7-.5,1.4-.7,2.1,0-.1-.2-.2-.3-.2-.5,1.3-1.1,2.2-1.1,3.7-1,3.5-1.6,5.7-1.8,6.6,0,4.1-.3,8.3,0,12.7.8,4.1,1.9,8.3,4.1,12.4.2,0,.3.1.6.6v-.4c-1.7-5.1-2.2-10.2-2.7-15.1.2-5.3.3-11.5,2.9-16,.8-3.6,3.7-7.4,5.4-10.7,1-.8,1.6-1.8,2.2-2.9,4.4-3.2,9-6,14.3-7.7v-.5c-.9-.4-5.3.7-6,.8,0-1.6,3.2-3.6,4.1-4.6.6-1.1.9-1.9,1.7-2.8,1.6-1,2.3-2.7,3.9-3.7,1.7,0,1.9-.2,2.4-1.9,0-5.2,1.9-9.1,4.4-13.5.9-3.5,3.1-6.9,4.7-10.2v-1h-.6c-.3.3-.5.5-.7.8-3.7,6.4-7.1,13.4-9.5,20.5-.7.9-4,5.5-5.3,5.5-1.7-1.3-2.3-1.3-4-1.3-1.3-.6-1.7-1.4-2.3-2.2,0,0,.2,0,.4-.2-2.3-2.6-4.6-5.2-6.1-7.9-.3-.7-.9-2-1.8-3.9-1.7-4.8-2.8-9.4-3.5-14.2-.2-1.7-.4-3.4-.6-5.1,0-8.8-.2-17.2,1.8-25.6.5-3.8,2.2-7.3,2.9-10.9.3-1,.4-2,1.3-2.3,1.3-2.8,2.9-5.7,4.6-8.1,1.2-2.3,1.8-3.5,4.2-4.7,1-1.3,2.8-1.3,4.6-1.6,2,0,3.9.8,6.3.8.6-.7-.4-1.6-.4-2,1.4-.8,3.7-1.2,5.4-1.9.6,0,2.2-.1,2.2-1.1-.7-.6-1.2-.7-1.7-.9h-3.7c-2.7.2-4.9,1.8-7.3,2.6h-.6c-.4-1.3,1.4-3.5,2.2-4.5.5-.2,1-.3,1.3-.5,3.1-3.5,7.6-5.8,11.5-8.3,6.1-3.2,11.7-5.6,18.3-7.6,7.3-1.9,14.3-2.9,22-3.1h3.6c4.7,0,9.4.7,14.4,1.4,6.6,1.3,12.7,3.3,19.2,6,3.3,1.5,6.8,3.6,10.4,5.7,6,4.3,11.1,9,16.3,14.8,1.3,1.8,2.6,3.7,3.9,5.5,3.1,5.2,5.5,10.3,7.2,16.5,1,4.7,1.5,9.1,1.9,14.1v6.4c-.5,3.3-1.2,6.6-2.3,10-.6,2.7-1.1,5.5-1.6,8.2-.6,2.4-1.3,5.4-2.3,7.8-1.2,4.4-2.6,8.8-3.6,13.2-.2.3-.3.6-.4.9-1.7,7.6-3.2,15.4-5.8,22.9-.1.9-.3,1-.3,2.1-.5,1.7,1.4,2.7,1.4,4.4-.2.2-.4.4-.5.6-1.6,0-3.4-.7-4.5-1.6-1.3-.3-2.2-.4-3.3-.5h-2.4c-.3,0-.5-.2-.6-.3,0-.1.1-.2.2-.2-.5,0-1,.2-1.5.4,0,0,0,.1-.1.2-1.1.2-2.1.4-3.2.6-2.6,1.5-4.9,2.9-7.1,4.3-4.1,3.2-7.6,6.7-10.8,10.9-.8,1.2-1.7,2.4-2.5,3.7-4.6,7.9-7.6,15.3-9.8,24.3-.9,4.2-1.6,8.6-1.9,13.1,0,1-.1,2.1-.1,3.1-.1,0-.1,3.2,0,3.2h0c0,1,0,1.9.1,2.8.6,8.1,2.1,15.6,7.2,22.6,3.5,3.8,4.1,4,4.1,4.8-.3.2-.5.4-.7.6-2.3-.8-2.9-1.2-4.3-2.6-1.4-.7-1.8-1.6-2.6-2.4-3.4-2.7-6.6-5.9-9.6-8.5-2.7-3.6-5.1-7.1-7.1-10.6-.8-2.1-1.6-4.2-2.4-6.2-1-1.1-1.8-1.8-2.4-2.4-1.3,0-2.6-.1-3.9-.1-1.3.7-3.7,1.4-5,1.2-1.9-1.7-2.6-2.3-4.5-.8-1.3,2-3.1,4.4-5,5.9v.2c-.3,0-.7.4-1.2.6-2.6,0-3.1,1.3-5.2,2.4-1.5,3.1-2.8,6.2-4.5,9.2-1.7.6-5.3.2-7,.2v-.2c-2-.4-1.9-1.6-3-2-2.2-2.9-3.2-6-4.9-8.8,0-1,0-1.6.4-2.3.4-.1.8-.2,1.3-.3,1.1,1.2,2.7,1,3.7-.5-.3-3.6-3.1-.9-4.8-2.3-1.9,0-5.2-1-6.6-2-2.3-.5-3.7-2.2-5.5-2.9h-.7v-.2Z"/>
  <path class="st7" d="M179.7,232.7c-4.6-2.3,2-6.2,2-1.4-.4.9-1.1,1.4-2,1.4Z"/>
  <path class="st7" d="M169.5,231c-2.4-1.4-2.1-3.8.1-4.9,1.3,0,3.7,1.5,2.7,3.4-1,1-1.6,1.3-2.8,1.5h0Z"/>
  <path class="st7" d="M187.1,227.4c-.7-.8-.7-.7-.7-1.5,1-1,2.3-1.1,2.5.7-.7.7-.9.7-1.8.8Z"/>
  <path d="M57.4,222.8c-3.2-.3-6.4-1.6-8.3-3.9-1.5-1-1.9-1.6-2.8-2.7-2.3-1-4.8-4.4-6.1-6.1-.4-.3-1.2-1.3-2.6-2.8-1.2-1.9-2.5-3.8-3.7-5.7-1.4-3.6-3.5-7.1-4.3-10.4-.7-1.6-.9-2.9-1.6-4.2-.6-2-1.5-4.1-1.8-5.9-1.7-4.4-2.1-9.8-2.7-14.3-1.1-4.5-.6-9.5-.3-13.8.7-5.6,1.4-11.2,3.8-16.3.4-1.6,1-2.1,1.8-3.3.3-.1.6-.2,1-.2,2.2-1.2,4.6-2.4,7.2-3.1,1.1-.6,5.2-2,6.3-1.2,0,.8-.8.8-1.3.9-.3.9-.8.9-1,2.2-1.6,2.9-2.5,7.2-3.5,10.6-1.1,5.1-1.9,10.4-2.2,15.8.4,3.8.7,7.7,1.1,11.6,1.7,7.5,4.5,15,7.8,22.5,2.9,5,6,9.8,9.8,14.6,1.3,1.5,2.7,3.6,4.9,4.6,2.7,2.1,4.8,4.1,8.6,4.9.6.4.9.7.9.8-.7.5-.6.8-.8,1.7-2.4,2.9-6.9,3.6-10.1,3.9h0v-.2Z"/>
  <path class="st7" d="M192.9,220.7c-1.6-1.6,0-3,1.3-1.7,0,.3,0,.6.1.9-.6.6-.7.7-1.4.7h0Z"/>
  <path class="st7" d="M163.1,218.9c-3.8-1.4.1-6.4,3.4-3.9.5,1,.7,1.6,0,2.9-.9.9-2.4.8-3.4,1Z"/>
  <path class="st0" d="M150.2,204.2v3.2c-.1,0-.1-3.2,0-3.2Z"/>
  <path class="st7" d="M161.5,204.4c-4.1-1.8.7-5.6,2.7-4.4,1.4,0,1.9.3,2.3,2-.7,3.1-2.3,2-5,2.4Z"/>
  <path class="st8" d="M75.8,203.3s0,.2-.2.3c-1.3.4-1.8-1-1.2-1.6.6.1,1.4.2,1.4,1.4h0Z"/>
  <path class="st7" d="M87.6,198.3c-.9-.4-1.8-.8-2.7-1.3-1.7-.4-7.5-4.3-7.8-5.6-2-2-4.5-5.4-5.1-7.7-.8-1.6-4.1-7.9-.8-7.9.7,1.4,2,3.7,2.2,5.6,1,1.8,1.9,4,3.1,6.1.4.1.4.4.7,1.2,0,0,.2,0,.3.1,0,0,0,.2,0,.3,3.4,1.9,6,5.8,10.5,7.1.7,1,1,1.9-.7,2.1h.2Z"/>
  <path class="st7" d="M86.2,192.8c-3.4-2.1-6.6-4.6-8.4-7.7-1.5-1.1-2.2-4.7-2.6-6.2,1.2.2,1.3,1.4,1.9,2.7h.2c0,.5.3.7.9,1.4.3-.7.3-.9,1.1-.3,1.3,2.1,3.2,5.4,5.9,6.4v.5c0,.1-.4.3-.9.4.8.8,1.4,1.5,2.7,2.3v.4c-.4,0-.7,0-1,.1h.2Z"/>
  <path class="st7" d="M165,191.1c-1-.6-1.7-.4-2.3-1.4-.6-3.2-.2-3.6,3.1-3.5,1.1.6,2,.1,3,1.9.2,1.2.3,1.4-.4,2.6-1.2.6-2.4.2-3.3.4h-.1Z"/>
  <path class="st7" d="M128.7,187.2c-.5-.5-.3-1-.3-1.4.4-.4.3-6.9.3-7.3-.4-7.1-2.3-14.6-5.4-20.5-1.2-1.3-1.5-2.7-2.1-4-2.9-4.1-5.9-8-8.8-11.7v-1c1.2-.2,1.3,0,2.5.8.9,1,2.1,2.1,3.6,3.4,1.6,2.1,3.3,4.3,4.9,6.5,2.4,4.2,4.8,8.6,5.9,13.7,1.9,5.7,1.4,11.7,1,17.9-.2.6-.5,1-.6,1.7,0,.6,0,1.8-.8,2h-.2Z"/>
  <path class="st1" d="M210.1,183.3v-6.9c.1,0,.1,6.9,0,6.9Z"/>
  <path class="st7" d="M120.1,179.4s.2-.1.3-.2v-.4c0,0-.2,0-.3.1-.6-2.4-.7-4.8-1.2-7-.8-2.3-1.2-3.8-1.3-4.3-1.1-2.8-1.8-4.4-1.8-4.8-2.1-4-4.4-7.6-7-10.9-.4-.7-.4-1.1-.2-1.6,1.2,0,3.2,2.1,4.5,3.2.4-.7-1.5-3.6-1.5-4.2.2-.4.2-.3.7-.4.7.8,1.5,1.4,2.2,2.3.4.9.6,1,1.8,1.7-.4-2.5-1.8-3.2-2.9-4.8v-.6c.2,0,.4,0,.8.2,6.4,5.7,11.1,15.8,12.5,24.6v6.8c0,.2-.3.4-.4.6h-.6c-.3-.8-.5-1.3-.6-1.6v-3.6c0-.4-.2-.8-.4-1.2h-.3c-.3,2,.9,4.6-.7,6.2-.6,0-.9-.2-1.3-.1-.4.9-.4,2.4-1,3.3h-.5c-.5-1-.5-2.1-.6-3.1h0l-.2-.2Z"/>
  <path class="st6" d="M120,178.9s.2,0,.3-.1v.4c0,0-.2.1-.3.2v-.5h0Z"/>
  <path class="st7" d="M171.6,179c-2.1-.9-5.4-1.5-4.4-4.4,1.6-1.9.9-2.1,3.6-2.1,1.7.8,3.7,2,3.7,4.7-.4,1.2-1.8,1.7-2.9,1.9h0Z"/>
  <path class="st3" d="M126.5,179v-6.8h.2v6.8h-.2Z"/>
  <path class="st7" d="M132.2,169.8c-.4-2.4-1.4-4.8-1.9-7-1.2-3.2-2.5-6.2-3.8-9v-1c.3,0,.9,0,1.5.2-.2-2.2-2.7-5.1-3.7-6.5-3.3-4.2-5-6.4-5.1-6.6v-1.6c.5-.1,1.8-.2,3.9-.3,1.9.3,5,.5,7.3.3,1.4-1.2,2-2.2.7-3.6-1-3.5-4-5.9-6-8.3-.9-.8-1.8-1.6-2-2.4.7.4,1.5,1.1,2.3,1.8,1.8,1.1,3.6,2.8,5.9,4,1.3.1,2.6.4,4.3,1,2.8,1.5,6.8,1.5,10.2,1.6,3.9.6,7.6.6,11.8.6,1.1-.1,2-.3,2.5-.4,3.6-.1,7.3-.3,11.1-1.2,3.9-.6,7.5-1.5,11.1-3.4,1.4-1,2.7-2.6,3.6,0,2.1,2.2,3.5,3.3,4.2,6.7,0,.9,0,2.3-.5,3.2-5.7-3.1-13.5-3.5-19.6-3.8-5.6.4-11.3.8-16.5,2.1-6.1,2.3-12.4,4.2-17.9,7.3-1.4-1.1-3-2.5-4.4-2.5-2.4.9-.8,2.9-.3,4.8,1.4,2.9,2.6,6.2,3.4,9.8.3,3.2,1.4,7.5.5,10.8v1.3c-.3.1-.6.3-.9.4-.2-.1-.3-.2-.5-.3-.6,1.2-.9,1.9-1,2h-.2Z"/>
  <path class="st7" d="M178.6,169.2c-2.6-1.1-5.4-3.9-3.5-6.6,1.9-1.4,1.8-1.7,4-.6,2.4,1.9,3.5,6.2-.5,7.2h0Z"/>
  <path class="st7" d="M185.8,160.6c-1.8-1-2.5-1.9-1.6-3.6,2-1.4,3.5-.2,3.5,2.4-.7.9-1,1.1-1.9,1.2h0Z"/>
  <path class="st7" d="M194.7,159.1c-1-.7-.8-.8-.8-1.6.7-.4,1.3-1.1,2.1.2,0,1-.4,1.3-1.3,1.4h0Z"/>
  <path class="st7" d="M153,120.7h-3.3c-3.2-.3-7.5-.5-10-2-4.6-1.7-8.2-3.7-11.8-6.3-1.5-1.5-2.8-2.7-3.7-3.7-2-1.8-3.7-3.7-4.7-5.8-.4-2.2-1.9-3.7-2.1-5.7-1.2-1.6-.8-2.8-1.6-4.1-.6-2.8-.6-5.8-.7-8.3v-2.9c.3-1.3.4-2.4.4-3.5.2-.6.5-.8.8-1.4.6-6.4,4.9-12.1,8.7-17,1.2-1,1.4-1.3,4.6-4,1.9-1.3,4.1-2.7,6.1-3.8,2.7-1.1,4.9-1.9,6.5-2.4,4.5-.9,9.9-1.8,14.6-.3v.5c-2.7.7-5.8,0-8.4.7h-.2c-3.2-.3-5.1.6-7.8,1.7-.2.2-.3.4-.5.7-3.7,0-5.7,2.1-8.8,3.8-1.2.9-2.4,1.9-3.6,2.8-2.6,2.8-4.6,5.3-6.2,8.8-1.1,1.7-1.9,2.9-2.3,5-1.4,3.1-1.7,6.2-2.1,9.7v4.2c.2.6.2.7,1.1.8.8-2.5,1.2-1.9,3.6-1.7.2-.2.4-.3.4-.4v-3.4c.2-1.5.4-3,.6-4.4,1.2-4,3.8-12.1,7.5-14.1,1.4-2.7,6.2-5.3,8.9-6.8.8-.4,1.6-.7,2.4-1,5.3-1.4,9.6-2,15.4-.8,2.6.8,5.3,2,8.2,3.5,3.4,2.5,6,5.1,8.8,8.7.6,1.2,1.3,2.3,1.9,3.5.8,2,1.6,4,2.3,6.2.2,1.2.4,2.4.6,3.7.2,4.7.6,11.1-1.6,15.6,0,1-1.9,4.2-2.5,5.3-1.3,1.9-2.6,4-4.1,5.7-1.2,1.1-2.3,2.2-3.4,3.3-4.6,2.9-8.8,4.1-13.9,4.3-1,.5-1.6.2-2.4.6-5.8-.9-10.3-2.3-15.2-5-1.4-1.1-2.8-2.1-4.3-3.2-3.5-3.8-5.7-7.3-7.6-12-.9-.8-1.2-1.3-1.6-2-2.1-.8-.7,2.2-.3,3.2,0,1.4.2,2.8.6,4.5.7.9,1.7,1.4,1.9,2.8q-.6.2-.8.6c.3.8.6.9,1.7,1,.4,1.3-.5,2.3,1.7,3,2.5,3.5,7.6,6,11.7,7.9,4.4,1.4,8.8,2.4,13.9,2.4,1.1-.5,1.8-1.5,3.2-.7,1.4,0,2.6-.8,3.9-1.1,4.4,1.1,10.6-3.5,14.3-5.9,3.6-3.2,6.5-6.8,9.3-10.6.2,0,.4,0,.7-.2-.3,2.7-3,5.8-4.6,7.9-3.3,3.5-7.1,6.4-11.4,8.6-4.9,2.2-9.9,3-14.9,3.5h.1Z"/>
  <path class="st7" d="M115.7,118.5c-2.1-2-4.3-4.1-6.3-5.6-1-.4-2-.9-3-1.3-1.6-.3-3.2-.6-4.7-.9-.7-1.4,0-3.9.8-4.8.5-3.3.8-5.3.8-5.9-.4-.7-.7-1-.7-1.6.3-.9.7-1.9,1-2.8-.2-1-.2-1.8-.2-2.3,1.8-2.7,1.4-5.9,4-1.3.2,6.1,2.6,12.1,4.7,18.3.5,1.3,1,2.2,1.3,2.8.7.9,2.5,3.7,2.3,5.3h0Z"/>
  <path class="st8" d="M191.6,116.7c-.6-.8,0-.8.5-.9.1,0,.2.3.2.6-.2.3-.4.4-.7.4h0Z"/>
  <path class="st7" d="M193,115h-.2c-.4-2,.4-3.3.5-4.9,1.6-2,3.1-3.7,4.4-5.8h.2c0,3.4-2.1,7.7-4.1,10.5-.3,0-.5,0-.8.2h0Z"/>
  <path class="st7" d="M79.2,109.4c-2-.9-3-1.6-4-3-1.2-1-1.9-2.6-2.7-3.5-.2-1.4-1.6-3.1-2.1-4.2-.2-.9-1.6-5.3-2-5.7-1.8-8.6-1.7-16.6-1.7-25,1.2-6.9,2.6-14.1,7.7-19.2,2.3-1.4,3.2-2.1,6.1-2,2.1,1.1,3.2,2.2,4.1,4.7,1.6,2.6,1.8,6.3,3.3,9.2,1.4,6.3,1.8,12.5,1.8,19.3-.4,1.4.2,3.4-.6,5.1,0,1.3-.2,2.6-.3,3.9-1,5.4-2.8,11-4.8,16.4-1.7,2.2-1.8,3.7-4.9,4h0Z"/>
  <path d="M79.2,105.9c-2.9-1-3.1-3-4.3-5.4-.4-1.8-2.4-4.1.4-4.1,1.3,1.1,2.2,4.6,3.8,5.7.4-1.1,1.4-2.5,2-3.4.9-.3.7-1.7,1.2-2.2,1.1-4.4,2.4-8.6,3-12.9.8-1.5.7-2.9.7-4.2.3,0,.8.3,1.4,0,0,2.2,0,4.6-.3,7-.2.8-.5,1.6,0,2.6-.7,4.2-2,8.5-3.4,12.8-.9,1.7-1.1,3.3-3,4.2h-1.4,0Z"/>
  <path class="st7" d="M199.6,80.4v2.9c-1.1,5.8-2.3,11.9-5.8,17-.7,1.2-1.4,2.3-2.1,3.5-1,.5-1.2,1.4-2.1,1.7-1.2-1.2-.3-1.8.3-3.1.9-1.8,1.8-3.6,2.7-5.3,1.3-3.7,2.4-7.4,3.1-11,1.1-3.1,1.5-6.3,2-9.4.3-.9.4-1,1-1.5.7.7.7,3.7.9,5.1h0Z"/>
  <path d="M143.4,60.3h4c3.3.6,6.1,1.7,9.3,3.6,0,.2.2.5.2,1-.3,0-.8.2-1.6.2h-2.4v.2c-6.6,0-12.8,4.1-16.6,9.1-1,1.5-1.8,3-2.6,4.7-.4,1.3-.7,2.6-1.1,3.9-.4,2.8-.5,5.8.1,9,.9,3.2,2.1,5.9,4.3,8.9v.4c-1.4,0-2.7-1.3-3.5-1.9-8.8-7.8-10.1-18.9-5-28.9,3.4-5.6,8.2-8.9,14.8-9.9h0v-.3Z"/>
  <path class="st7" d="M88.2,95.5c0-1.4,0-2.4.3-3.6.4-1.2,1.2-4.9,2.1-6.1.3,0,.4,0,.6.2,0,2.7-.8,6.9-2.4,9.3-.2,0-.4,0-.6.2h0Z"/>
  <path class="st5" d="M116.8,83.1v4.2-4.2Z"/>
  <path d="M69.5,79.4v-9.2c.3-3.9,1-7.5,1.7-11.1.9-2.2,4.4-9.8,7.4-9.8,1.4,1.5,2.6,4.6,3.4,6.8-3.1.4-3.8,1.7-5.6,4.2,0,.4-.4.8-.7,1.3-.7,1.6-1.4,3.2-2.1,4.9-1.1,5.8-2.3,11.3-2.6,17.2h-1c-.4-1.7-.6-2.9-.7-4.3h.2Z"/>
  <path class="st2" d="M69.5,70.2v9.2h-.2v-9.2h.2Z"/>
  <path class="st7" d="M191.6,75.8c-.2-5.6-2.6-9.7-5-14.1-1.9-2.8-3.2-4.4-3.6-5-3-2.5-5.2-5.5-8.3-6.9-1.8-2-4.6-3-6.6-4.2v-.3c3.5,0,9.1,3.8,12.1,5.9,2.7,2.3,5.5,4.8,8,7.8.2.7.7,1.7,1.3,2.7.4,1.4.8,2.4,1.6,5.5.8,1.6.9,6.1.8,8.3-.1,0-.2,0-.3.2h0Z"/>
  <path class="st5" d="M153,65.1v-.2h2.4-2.4v.2Z"/>
  <path class="st7" d="M148.1,50.6h.2c.9.5,2.3,0,3.4.6,0,1.3-2.7.8-3.4.8-1.1-.7-.7-.9,0-1.4h-.2Z"/>
  <path class="st7" d="M109.8,50.9c-1.1-5-5.2-9.4-7.8-13.3v-.6c3.9-.8,4.8,2,6.6,5.4.8,2.3,1.8,5.7,1.7,8.4h-.5,0Z"/>
  <path class="st7" d="M135.7,28.9h3.7c2.4-.2,5.1.4,7.6.7.2,0,.4.2.6.3-.9.2-1.8-.2-2.4-.2h-3.1c-2.6,0-4.5.3-6.7.9-3.6,0-5.6,1.6-8.9,2.7,0,0-.7.3-2.2,1.1-2.4,1.1-4.8,2.7-6.6,4.4-.7-.5-.6-.9-.7-1.3-1.6-1.6-2-2.7-2.9-4.3-.6-1.6-1-2.4-1-2.6.8-.7,3.6,2.7,4.7,3.6,1.9.2,2.8-1,4.4-2.2,1.1-.5,2-.7,3.1-.9,3.1-1.7,6.7-1.7,10.4-2.2h0Z"/>
  <path class="st9" d="M136.2,5.9c0,0,3.6,0,3.6,0h-3.6Z"/>
  <image class="st4" width="128" height="128" transform="translate(0) scale(1.9)" xlink:href="../../FrostyToolsuite/Resources/Icon128.png"/>
</svg>