<?xml version="1.0" encoding="UTF-8"?>
<svg id="Layer_2" xmlns="http://www.w3.org/2000/svg" version="1.1" viewBox="0 0 241.55 241.55">
  <!-- Generator: Adobe Illustrator 30.2.1, SVG Export Plug-In . SVG Version: 2.1.1 Build 1)  -->
  <defs>
    <style>
      .st0, .st1 {
        fill: #fff;
        opacity: .5;
      }

      .st1 {
        isolation: isolate;
      }
    </style>
  </defs>
  <path class="st1" d="M211.22,55.7c-1.77-6.16-4.16-11.26-7.23-16.46-1.33-1.84-2.65-3.68-3.94-5.49-5.2-5.77-10.3-10.49-16.3-14.78-3.52-2.03-7.07-4.13-10.36-5.68-6.48-2.78-12.62-4.75-19.17-6.04-4.93-.71-9.68-1.26-14.36-1.39h0c0-.1-3.65-.1-3.65,0h0c-7.75.19-14.76,1.23-22.02,3.1-6.65,2.03-12.27,4.42-18.34,7.65-3.97,2.49-8.42,4.81-11.52,8.33-.34.19-.78.37-1.32.52-.87.93-2.65,3.16-2.23,4.45.19,0,.39,0,.58.03,2.39-.8,4.59-2.42,7.3-2.61,1.2,0,2.42.03,3.65.06.52.2,1,.36,1.71.94,0,.97-1.62,1.04-2.2,1.1-1.74.67-4.06,1.09-5.42,1.9.09.39,1,1.35.45,2-2.32,0-4.29-.64-6.26-.77-1.77.32-3.55.26-4.58,1.58-2.35,1.1-3,2.39-4.16,4.65-1.75,2.42-3.3,5.29-4.62,8.1-.84.32-.97,1.35-1.29,2.32-.71,3.64-2.46,7.1-2.91,10.94-2.04,8.4-1.81,16.79-1.81,25.57.19,1.68.38,3.36.61,5.07.77,4.81,1.81,9.33,3.55,14.17.95,1.85,1.56,3.14,1.84,3.87,1.52,2.68,3.75,5.36,6.07,7.91-.13.06-.26.13-.36.19.55.78.97,1.68,2.26,2.23,1.71,0,2.29,0,3.97,1.32,1.33,0,4.62-4.59,5.33-5.46,2.39-7.17,5.84-14.14,9.52-20.53.23-.29.45-.55.71-.81h.61c.09.23.09.52.03,1-1.58,3.26-3.74,6.68-4.68,10.2-2.46,4.39-4.36,8.3-4.36,13.53-.55,1.67-.74,1.8-2.42,1.9-1.62,1-2.3,2.68-3.91,3.71-.71.94-1.04,1.71-1.65,2.84-.97,1-4.13,3.04-4.13,4.62.75-.09,5.17-1.19,6.04-.77v.52c-5.26,1.74-9.94,4.48-14.3,7.71-.59,1.07-1.23,2.07-2.2,2.91-1.65,3.36-4.52,7.1-5.36,10.72-2.58,4.52-2.71,10.71-2.87,16.04.54,4.94,1,10.07,2.74,15.14-.03.13-.06.26-.06.42-.26-.45-.39-.52-.58-.58-2.16-4.1-3.26-8.3-4.1-12.4-.36-4.39-.2-8.62-.1-12.72.19-.93.81-3.13,1.84-6.62,0-1.51.55-2.45,1.07-3.71.07.07.16.13.26.23.23-.71.45-1.39.71-2.07.71-1.23,1.65-2.78,2.07-4.04,2.1-3.26,4.62-6.29,6.75-9.36.42-.13.42-.42,2.78-3.55.55-1.29,1.1-2.58,1.68-3.87.48-1.93,1.16-5.48.32-6.84-.35.38-.71.77-1.03,1.19h-.29c-.54-1.13-1.09-2.26-1.61-3.39-.26-.93-.74-3-1.29-3.32-.15.37-.43.8-.84,1.29-.39.75-2.59,5.43-3.2,5.62-1.1,1.84-3.14,3.75-4.62,5.36-1.07.58-2.04,1.61-2.91,2.45-2.55,1.61-4.81,2.51-7.68,2.16-.9.45-1.97.74-2.74,1.19-3.81,5.97-5.36,13.43-6.55,20.5-.26.26-.77,6.78-.32,7.23.02,1.93.11,4.03.26,6.29,1.03,6.2,3.13,12.56,5.36,18.92,1.45,3.1,2.94,6.23,4.42,9.36,2.26,3.71,4.65,7.65,7.68,11.33,1.01,1.07,2.63,2.69,4.84,4.84,2.07,1.62,4.49,2.97,7.17,4.49,1.22.29,1.97.52,2.87-.84,3.49-1.91,6.69-4.33,10.85-4.94-.23-.2-.46-.36-.65-.52-.61-.93-4.03-2.93-4.71-3.32-.48-.6-.32-.58-.32-1.02-.64.19-1.08-.07-1.29-.45-.21-.38-.19-.88.1-1.17.34.06.8.14,1.1.46.18.19.3.47.3.9.22-.03.42-.03.64-.03,1.75.64,3.14,2.35,5.46,2.87,1.39,1,4.65,1.97,6.59,1.97,1.71,1.35,4.49-1.33,4.81,2.29-.91,1.45-2.52,1.71-3.65.48-.42.09-.84.19-1.26.32-.36.77-.42,1.29-.42,2.32,1.68,2.78,2.71,5.81,4.91,8.75,1.13.48,1,1.64,3,2.03,0,.07.03.13.06.23,1.64,0,5.29.36,6.97-.19,1.65-3.03,2.97-6.16,4.49-9.23,2.1-1.16,2.62-2.42,5.2-2.42.52-.22.94-.55,1.23-.61v-.23c1.91-1.52,3.72-3.91,5.04-5.94,1.97-1.52,2.65-.97,4.52.77,1.33.19,3.78-.49,5.04-1.23,1.29.03,2.59.07,3.91.13.62.52,1.44,1.31,2.45,2.36.81,2.07,1.61,4.13,2.42,6.23,1.97,3.55,4.42,7.1,7.1,10.65,3.07,2.58,6.17,5.81,9.62,8.52.81.84,1.26,1.68,2.65,2.42,1.35,1.46,1.94,1.88,4.26,2.65.23-.23.45-.46.71-.65,0-.84-.58-1.03-4.07-4.84-5.04-6.98-6.52-14.53-7.17-22.6-.07-.94-.1-1.88-.13-2.78v-.06c-.1,0-.1-3.23,0-3.23.03-1.06.07-2.1.13-3.13.32-4.49,1-8.91,1.87-13.11,2.26-9,5.26-16.39,9.81-24.27.81-1.23,1.65-2.45,2.49-3.68,3.19-4.14,6.65-7.65,10.78-10.85,2.17-1.4,4.54-2.84,7.1-4.33,1.03-.19,2.1-.39,3.16-.58.04-.1.07-.17.1-.23.45-.17.95-.28,1.49-.35-.06.07-.13.13-.19.23.13.13.33.23.61.32.78,0,1.55,0,2.36.03,1.06.07,1.97.23,3.29.52,1.1.81,2.84,1.55,4.49,1.55.16-.22.33-.42.52-.61,0-1.74-1.94-2.74-1.42-4.42.06-1.1.19-1.23.32-2.13,2.65-7.52,4.1-15.3,5.81-22.92.13-.32.29-.61.45-.9.97-4.42,2.32-8.78,3.55-13.2,1.06-2.42,1.67-5.39,2.32-7.81.51-2.74,1.03-5.49,1.58-8.23,1.13-3.35,1.8-6.68,2.32-9.97v-6.36c-.41-4.97-.9-9.42-1.9-14.07h0ZM84.11,105.4c-1.65,2.16-1.81,3.74-4.94,4v-.02c-1.96-.87-2.99-1.55-3.99-3.03-1.23-.97-1.9-2.61-2.68-3.52-.16-1.42-1.58-3.13-2.1-4.16-.16-.94-1.61-5.29-2.03-5.71-1.81-8.55-1.68-16.62-1.74-25.05,1.16-6.94,2.58-14.07,7.68-19.17,2.29-1.39,3.23-2.1,6.13-1.97,2.07,1.07,3.16,2.16,4.13,4.68,1.55,2.61,1.81,6.29,3.32,9.23,1.36,6.29,1.84,12.49,1.78,19.34-.42,1.45.19,3.36-.55,5.1-.1,1.29-.19,2.58-.26,3.91-1,5.42-2.81,11.04-4.75,16.37h0ZM88.77,95.34c-.19.06-.39.13-.55.19,0-1.42.1-2.42.26-3.58.36-1.23,1.16-4.94,2.1-6.13.26.02.44.08.55.19,0,2.74-.84,6.91-2.36,9.33ZM77.15,181.63h.23c.06.48.26.68.94,1.36.29-.74.29-.94,1.13-.29,1.26,2.1,3.16,5.39,5.94,6.42,0,.16,0,.32.03.52-.13.13-.42.26-.87.39.81.81,1.45,1.48,2.65,2.32v.39c-.36.03-.68.06-1,.1h-.01c-3.39-2.08-6.59-4.66-8.43-7.72-1.52-1.13-2.23-4.71-2.55-6.17,1.19.19,1.26,1.39,1.94,2.68h0ZM87.64,198.26h0c-.9-.43-1.78-.85-2.65-1.27-1.71-.45-7.49-4.26-7.75-5.62-2-2-4.52-5.36-5.1-7.71-.84-1.58-4.13-7.88-.77-7.88.74,1.42,2,3.68,2.2,5.65,1.03,1.78,1.9,4.04,3.1,6.07.42.1.45.45.74,1.23.1.03.19.06.32.1.03.06.06.16.13.26,3.42,1.9,6.04,5.84,10.46,7.1.74,1,1,1.87-.68,2.07ZM167.91,45.43c3.49,0,9.14,3.84,12.14,5.94,2.71,2.26,5.49,4.78,7.97,7.81.23.74.74,1.68,1.32,2.71.39,1.42.81,2.36,1.65,5.46.77,1.58.9,6.07.84,8.33-.1.03-.18.09-.25.15h0c-.19-5.55-2.55-9.67-5.04-14.1-1.94-2.75-3.16-4.42-3.65-5-3-2.45-5.16-5.55-8.33-6.88-1.84-2.03-4.55-3-6.65-4.16v-.26h0ZM156.68,49.34c.04.21.02.37-.06.48-2.71.68-5.75.1-8.36.74h-.16c-3.2-.26-5.1.61-7.84,1.74-.16.19-.32.42-.48.65-3.74.13-5.68,2.13-8.78,3.84-1.25.93-2.44,1.87-3.58,2.84-2.58,2.84-4.62,5.26-6.2,8.78-1.1,1.65-1.9,2.91-2.29,4.97-1.42,3.07-1.71,6.17-2.07,9.68,0,0,0,.02-.01.03v4.15s0,.03.01.03c.16.61.16.74,1.13.84.77-2.52,1.23-1.87,3.58-1.68.24-.17.39-.32.45-.45.03-1.16.06-2.32.1-3.45.19-1.48.39-2.97.58-4.42,1.16-4.04,3.84-12.07,7.49-14.14,1.36-2.74,6.17-5.33,8.85-6.75.81-.36,1.61-.68,2.45-1,5.29-1.42,9.62-1.97,15.4-.77,2.65.84,5.33,1.97,8.23,3.49,3.36,2.49,6.04,5.1,8.75,8.68.61,1.16,1.26,2.32,1.9,3.52.77,1.97,1.55,3.97,2.26,6.23.19,1.19.42,2.42.65,3.65.19,4.68.58,11.07-1.55,15.62,0,1.03-1.87,4.16-2.49,5.29-1.26,1.87-2.61,4-4.1,5.71-1.16,1.1-2.29,2.2-3.42,3.32-4.58,2.87-8.81,4.07-13.88,4.33-1,.48-1.65.23-2.42.61-5.78-.94-10.33-2.26-15.2-5-1.42-1.07-2.84-2.13-4.26-3.2-3.52-3.84-5.71-7.33-7.55-12.04-.9-.84-1.23-1.26-1.58-2.03-2.13-.84-.74,2.16-.35,3.2.03,1.39.19,2.84.58,4.49.71.87,1.74,1.39,1.94,2.84-.58.19-.58.23-.81.61.32.81.58.87,1.71.97.42,1.26-.48,2.32,1.68,3.03,2.52,3.52,7.59,6.04,11.72,7.94,4.42,1.36,8.84,2.45,13.91,2.45,1.13-.48,1.81-1.48,3.23-.65,1.36,0,2.58-.77,3.94-1.07,4.42,1.1,10.59-3.49,14.27-5.94,3.58-3.16,6.46-6.84,9.3-10.62.23-.07.45-.13.68-.19-.26,2.71-2.97,5.78-4.65,7.91-3.32,3.52-7.07,6.36-11.39,8.62-4.94,2.2-9.88,2.97-14.95,3.49h-.03c-1.13-.02-2.23-.02-3.33-.02-3.16-.32-7.52-.52-10.01-2-4.62-1.71-8.17-3.68-11.85-6.29-1.55-1.49-2.76-2.72-3.65-3.71-2.03-1.81-3.68-3.74-4.71-5.81-.45-2.2-1.87-3.71-2.13-5.71-1.19-1.61-.77-2.84-1.55-4.13-.61-2.81-.58-5.75-.71-8.33v-2.91c.26-1.32.36-2.45.36-3.52.23-.55.52-.84.81-1.42.61-6.42,4.87-12.14,8.65-16.98,1.16-1.03,1.36-1.32,4.58-4.04,1.9-1.29,4.07-2.65,6.13-3.78,2.71-1.07,4.89-1.88,6.52-2.42,4.52-.94,9.85-1.84,14.56-.29h0ZM148.11,50.57h.15c.9.45,2.26.03,3.36.58,0,1.32-2.71.81-3.45.81-1.13-.65-.74-.9-.06-1.39ZM117.76,34.22c1.9.23,2.78-.97,4.42-2.16,1.1-.45,2.03-.65,3.13-.9,3.1-1.74,6.71-1.74,10.36-2.2v-.02h3.68c2.36-.16,5.07.42,7.62.65.19.1.39.19.58.29-.9.23-1.84-.19-2.39-.19h-3.13c-2.55.1-4.52.26-6.68.9-3.65,0-5.62,1.61-8.91,2.65-.13.13-.65.26-2.16,1.13-2.45,1.07-4.75,2.71-6.62,4.42-.71-.52-.58-.87-.74-1.32-1.58-1.58-2-2.74-2.87-4.29-.65-1.57-.97-2.43-.97-2.58.77-.65,3.58,2.65,4.68,3.62h0ZM108.62,42.43c.84,2.29,1.84,5.68,1.71,8.36-.16.03-.32.06-.48.1-1.13-5-5.23-9.36-7.75-13.3-.03-.19-.06-.39-.1-.58,3.94-.77,4.84,2.03,6.62,5.42ZM106.3,111.61c-1.58-.32-3.16-.61-4.71-.9-.65-1.45-.1-3.94.81-4.84.51-3.33.77-5.29.77-5.87-.36-.71-.65-1.03-.65-1.61.32-.94.68-1.87,1.03-2.78-.15-1.03-.23-1.8-.23-2.29,1.81-2.71,1.36-5.94,4.04-1.26.16,6.1,2.55,12.14,4.68,18.3.54,1.27.98,2.21,1.32,2.84.71.94,2.5,3.63,2.29,5.24h.01-.01c-2.07-2.03-4.28-4.06-6.32-5.54-1.03-.45-2.03-.87-3.03-1.29h0ZM126.54,178.95h0c-.13.19-.26.42-.36.65-.19-.03-.39-.03-.58-.03-.32-.75-.51-1.3-.58-1.65-.03-1.19-.06-2.39-.1-3.55-.09-.43-.23-.84-.42-1.23-.1,0-.19,0-.26.03-.32,1.97.94,4.55-.71,6.2-.58-.03-.94-.16-1.32-.13-.36.9-.36,2.42-1.03,3.26-.16-.03-.32-.06-.48-.06-.52-1.03-.48-2.1-.61-3.07h0c.1-.06.19-.13.32-.16h0c-.12.03-.22.1-.31.16-.03-.16-.06-.32-.1-.47h-.01c-.58-2.42-.74-4.84-1.19-7-.77-2.35-1.21-3.79-1.32-4.33-1.14-2.77-1.75-4.36-1.84-4.75-2.07-4-4.42-7.62-6.97-10.94-.36-.71-.42-1.13-.23-1.61,1.23,0,3.23,2.1,4.49,3.16.36-.74-1.52-3.58-1.52-4.23.23-.35.23-.26.74-.35.68.77,1.52,1.45,2.16,2.29.45.87.58,1.03,1.81,1.68-.42-2.52-1.78-3.23-2.87-4.84-.03-.23-.03-.45-.03-.65.17-.04.44,0,.81.16,6.39,5.68,11.07,15.82,12.46,24.63h.16c0,4.56-.03,6.84-.1,6.84h0ZM130.2,183.5c-.19.61-.48,1.03-.65,1.71-.03.55.06,1.78-.81,1.97h0c-.52-.52-.29-1.03-.32-1.45.39-.39.32-6.91.32-7.33-.35-7.1-2.26-14.56-5.39-20.53-1.16-1.32-1.52-2.74-2.1-4-2.91-4.13-5.91-8.04-8.84-11.69-.03-.32-.06-.65-.06-.97,1.16-.16,1.29-.06,2.52.84.93.97,2.11,2.12,3.55,3.45,1.61,2.13,3.26,4.29,4.91,6.46,2.39,4.2,4.75,8.62,5.91,13.69,1.9,5.71,1.45,11.72.97,17.85h-.01ZM189.4,137.81c-5.68-3.07-13.49-3.49-19.59-3.78-5.58.36-11.27.84-16.5,2.13-6.1,2.32-12.36,4.2-17.92,7.33-1.42-1.07-2.97-2.49-4.39-2.49-2.39.94-.81,2.87-.29,4.75,1.45,2.91,2.65,6.23,3.42,9.78.29,3.23,1.45,7.49.52,10.81-.03.42-.06.84-.06,1.26-.32.13-.61.26-.9.42-.16-.1-.32-.19-.48-.26-.57,1.2-.91,1.86-1.02,1.99h0c-.39-2.45-1.42-4.75-1.94-7-1.16-3.23-2.49-6.2-3.78-9.04,0-.36,0-.71.03-1.03.35-.06.87.03,1.49.23-.19-2.23-2.65-5.07-3.65-6.52-3.29-4.19-4.98-6.4-5.07-6.62-.03-.55-.06-1.1-.06-1.61.54-.11,1.83-.19,3.87-.26,1.9.32,5,.48,7.26.32,1.42-1.16,2.03-2.23.71-3.55-1-3.49-3.97-5.87-6.04-8.3-.87-.84-1.77-1.55-1.97-2.42.68.39,1.49,1.07,2.29,1.78,1.81,1.07,3.58,2.84,5.87,3.97,1.32.13,2.65.45,4.26.97,2.84,1.52,6.78,1.48,10.2,1.61,3.87.65,7.59.65,11.75.65,1.14-.13,1.98-.27,2.52-.42,3.62-.13,7.33-.26,11.07-1.19,3.94-.58,7.46-1.48,11.14-3.42,1.42-.97,2.68-2.65,3.55,0,2.07,2.23,3.52,3.26,4.23,6.68-.03.87.03,2.26-.52,3.23ZM191.66,116.74h0c-.65-.81,0-.84.52-.94.11.11.18.29.23.55-.19.29-.39.36-.74.39h0ZM193.81,114.74c-.26.06-.52.13-.77.23h0c-.1-.03-.16-.06-.23-.1-.39-2.03.39-3.26.52-4.94,1.58-2,3.1-3.65,4.39-5.81.06.03.13.06.19.1,0,3.36-2.13,7.71-4.1,10.52ZM199.56,83.27c-1.1,5.84-2.29,11.88-5.78,17.04-.71,1.16-1.42,2.32-2.1,3.49-.97.48-1.16,1.45-2.1,1.74-1.19-1.19-.26-1.84.26-3.1.9-1.78,1.81-3.55,2.71-5.29,1.26-3.71,2.45-7.36,3.13-11.01,1.07-3.1,1.52-6.26,1.97-9.39.32-.87.42-1.03,1-1.52.71.71.68,3.71.9,5.13h0v2.91h.01Z"/>
  <path class="st0" d="M67.42,216.44c-3.81-.81-5.91-2.87-8.59-4.94-2.22-1-3.55-3.1-4.87-4.62-3.81-4.81-6.98-9.56-9.85-14.56-3.23-7.43-6.07-15.01-7.75-22.47-.39-3.88-.74-7.72-1.1-11.56.29-5.43,1.13-10.72,2.23-15.79,1.06-3.36,1.97-7.72,3.55-10.59.23-1.22.68-1.29,1-2.16.55-.09,1.32-.09,1.32-.9-1.1-.87-5.23.61-6.33,1.16-2.58.68-5.07,1.9-7.23,3.13-.35.07-.68.13-1,.23-.81,1.25-1.42,1.74-1.81,3.32-2.42,5.04-3.04,10.62-3.78,16.27-.32,4.36-.78,9.33.29,13.82.58,4.49.97,9.82,2.68,14.27.26,1.78,1.13,3.94,1.78,5.91.67,1.26.87,2.62,1.61,4.2.8,3.33,2.93,6.85,4.29,10.43,1.23,1.9,2.45,3.81,3.68,5.71,1.38,1.49,2.22,2.55,2.61,2.81,1.32,1.68,3.81,5.16,6.13,6.13.84,1.16,1.26,1.71,2.78,2.74,1.94,2.22,5.13,3.58,8.33,3.87l.02.02c3.26-.32,7.72-1.07,10.14-3.94.2-.87.13-1.2.81-1.68-.07-.15-.38-.42-.94-.81h0Z"/>
  <path class="st0" d="M150.2,207.45v-3.23c-.1,0-.1,3.23,0,3.23Z"/>
  <path class="st0" d="M75.79,203.25c0-.42-.12-.7-.29-.9-.29-.32-.75-.39-1.09-.45-.29.29-.32.79-.11,1.16.21.38.65.63,1.29.44h.01c.06-.1.13-.2.19-.26h-.03.03,0Z"/>
  <path class="st0" d="M75.79,203.25h.01-.01Z"/>
  <path class="st0" d="M210.05,176.4h0c-.2-1.8-.39-3.6-.55-5.38-.78-4.07-1.68-7.94-3.2-11.46-.65-1.23-1.29-2.43-1.94-3.62-3.35-4.9-6.29-7.29-11.65-8.84-5.45-.93-9.23.74-13.94,2.94-5.69,3.68-9.72,8.01-13.53,13.56-5.01,7.84-8.46,16.01-10.56,25.24-.12.12-.64,2.9-.77,3.03-1.29,8.71-1.71,16.65-.16,25.53.71,3.01,1.58,5.72,2.84,8.88.59,1.13,1.17,2.26,1.78,3.39,3.45,4.84,6.07,7.2,12.17,8.94.68.06,1.36.13,2.07.19,2.13-.06,4.03-.39,6.29-.87,7.33-2.65,12.39-7.78,17.14-13.82,4.17-5.97,7.39-12.27,9.75-18.98,2.26-7.33,3.61-14.4,4.26-21.82h0c.1,0,.1-6.92,0-6.92h0ZM165.8,186.2c1.1.61,2,.13,2.97,1.87.16,1.23.29,1.36-.45,2.55-1.23.61-2.36.19-3.29.42h0c-1.03-.6-1.74-.35-2.32-1.35-.58-3.16-.16-3.65,3.1-3.49h-.01ZM161.47,204.38c-4.1-1.81.71-5.58,2.71-4.39,1.42,0,1.94.26,2.26,2-.71,3.07-2.32,1.97-4.97,2.39ZM166.44,217.94c-.9.9-2.39.84-3.36.97-3.81-1.42.1-6.36,3.36-3.87.48,1,.68,1.55,0,2.9ZM172.31,229.49c-1.03,1.03-1.55,1.32-2.84,1.52-2.45-1.39-2.1-3.81.1-4.91,1.32,0,3.68,1.52,2.74,3.39h0ZM171.63,178.98c-2.1-.94-5.42-1.52-4.39-4.45,1.65-1.94.87-2.1,3.62-2.1,1.74.77,3.71,2.03,3.71,4.68-.45,1.16-1.78,1.74-2.94,1.87h0ZM175.05,162.61c1.94-1.45,1.81-1.74,4.04-.65,2.39,1.9,3.49,6.23-.52,7.23h0c-2.55-1.12-5.39-3.93-3.52-6.58h0ZM179.74,232.69c-4.65-2.32,2.03-6.17,2.03-1.45-.36.94-1.13,1.39-2.03,1.45ZM184.19,157.02c2-1.42,3.52-.19,3.52,2.39-.74.87-.97,1.13-1.87,1.23-1.78-.97-2.49-1.94-1.65-3.62h0ZM187.13,227.37c-.71-.81-.71-.71-.71-1.52,1.03-1.03,2.26-1.13,2.49.74-.68.68-.9.71-1.78.78ZM192.94,220.68c-1.58-1.58-.03-3.03,1.32-1.68.03.29.06.61.1.94-.61.61-.71.68-1.42.74h0ZM194.71,159.08h0c-1.03-.73-.81-.76-.81-1.64.71-.39,1.26-1.13,2.1.19,0,1-.35,1.32-1.29,1.45h0Z"/>
  <path class="st0" d="M120.31,178.78c-.13.04-.22.07-.32.1h0c.09-.04.18-.07.31-.1.04.13.07.26.1.41h.01c-.04-.16-.07-.29-.1-.42h0Z"/>
  <path class="st0" d="M86.15,79.29c-.03,1.29.06,2.75-.71,4.23-.61,4.26-1.93,8.52-3.03,12.88-.45.55-.25,1.94-1.19,2.2-.61.9-1.55,2.29-1.97,3.39-1.65-1.1-2.55-4.52-3.81-5.65-2.81,0-.84,2.32-.45,4.13,1.16,2.36,1.39,4.36,4.26,5.39v-.02c.45-.03.94-.06,1.42-.06,1.9-.84,2.16-2.45,3.03-4.16,1.39-4.36,2.77-8.62,3.42-12.85-.35-1.06-.06-1.84.13-2.61.26-2.35.26-4.81.26-6.97-.52.39-1.07.23-1.36.1Z"/>
  <path class="st0" d="M133.68,99.1c.81.58,2.1,1.9,3.52,1.9-.03-.16-.03-.32-.03-.45-2.2-3.03-3.43-5.68-4.33-8.91-.61-3.16-.55-6.13-.13-8.97.36-1.29.71-2.58,1.1-3.87.84-1.62,1.64-3.17,2.61-4.65,3.84-4.94,10-9.07,16.59-9.07h0c.78-.02,1.55-.05,2.36-.05,0-.07-.79-.1-2.36-.1h0c1.57-.01,2.36.02,2.36.09.75,0,1.28-.05,1.58-.16-.07-.51-.14-.85-.23-1-3.2-1.81-6.01-2.97-9.3-3.55-1.35-.03-2.68-.06-4-.06h0c-6.55,1.02-11.36,4.35-14.75,9.93-5.1,10.04-3.84,21.17,5,28.92h0Z"/>
  <path class="st0" d="M116.85,87.27v-.04c-.09-.27-.09-3.88,0-4.15v-.02c-.1,0-.1,4.2,0,4.2h0Z"/>
  <path class="st0" d="M76.44,60.31c1.71-2.51,2.45-3.77,5.55-4.16-.9-2.22-2-5.39-3.45-6.84-3.03,0-6.52,7.61-7.42,9.81-.65,3.61-1.33,7.2-1.65,11.07h-.16v9.2h.16c.1,1.46.23,2.64.65,4.32h.97c.26-5.94,1.48-11.46,2.55-17.21.68-1.64,1.36-3.26,2.07-4.87.32-.48.64-.9.74-1.32h-.01Z"/>
</svg>